<svg aria-hidden="true" style="position:absolute;width:0;height:0;overflow:hidden" xmlns="http://www.w3.org/2000/svg"><defs><symbol id="icon-close" viewBox="0 0 24 24"><path d="M22.791 3.626a1.708 1.708 0 1 0-2.417-2.417L12 9.583 3.626 1.209a1.71 1.71 0 0 0-2.417 2.417L9.583 12l-8.374 8.374a1.71 1.71 0 0 0 2.417 2.417L12 14.417l8.374 8.374a1.708 1.708 0 1 0 2.417-2.417L14.417 12l8.374-8.374z"/></symbol><symbol id="icon-burger-menu" viewBox="0 0 24 24"><path d="M3 17a1 1 0 0 0 1 1h16a1 1 0 0 0 0-2H4a1 1 0 0 0-1 1zm0-5a1 1 0 0 0 1 1h16a1 1 0 0 0 0-2H4a1 1 0 0 0-1 1zm1-6a1 1 0 0 0 0 2h16a1 1 0 0 0 0-2H4z"/></symbol><symbol id="icon-burger-hover" viewBox="0 0 24 24"><path d="M3 17a1 1 0 0 0 1 1h7a1 1 0 0 0 0-2H4a1 1 0 0 0-1 1zm0-5a1 1 0 0 0 1 1h16a1 1 0 0 0 0-2H4a1 1 0 0 0-1 1zm1-6a1 1 0 0 0 0 2h11a1 1 0 0 0 0-2H4z"/></symbol></defs></svg>